#N canvas 56 470 810 912 10;
#X obj 235 128 dumpOSC 8889;
#X obj 118 496 print;
#X obj 466 146 route /2/raw;
#X obj 467 170 unpack 0 0 0 0 0 0 0 0 0 0 0 0 0 0;
#X floatatom 276 243 5 0 0 0 - - -;
#X floatatom 315 243 5 0 0 0 - - -;
#X floatatom 357 243 5 0 0 0 - - -;
#X floatatom 394 245 5 0 0 0 - - -;
#X floatatom 433 245 5 0 0 0 - - -;
#X floatatom 475 245 5 0 0 0 - - -;
#X floatatom 515 246 5 0 0 0 - - -;
#X floatatom 554 246 5 0 0 0 - - -;
#X floatatom 596 246 5 0 0 0 - - -;
#X obj 511 349 vsl 15 128 0 127 0 0 empty empty empty 0 -9 0 10 -262144
-1 -1 9570 1;
#X obj 522 314 * 800;
#X obj 548 348 vsl 15 128 0 127 0 0 empty empty empty 0 -9 0 10 -262144
-1 -1 11816 1;
#X obj 559 313 * 800;
#X obj 587 347 vsl 15 128 0 127 0 0 empty empty empty 0 -9 0 10 -262144
-1 -1 3914 1;
#X obj 623 300 * 400;
#X obj 472 521 ctlout 1 1;
#X obj 554 529 ctlout 2 1;
#X obj 637 531 ctlout 3 1;
#X obj 315 390 delta;
#X obj 318 459 change;
#X obj 323 492 sel 1;
#X obj 324 525 bng 15 250 50 0 empty empty empty 17 7 0 10 -262144
-1 -1;
#X obj 323 427 >= 0.2;
#X obj 109 457 dumpOSC 9001;
#X obj 121 593 unpack 0 0 0 0 0 0 0 0 0 0 0 0 0 0;
#X floatatom -70 666 5 0 0 0 - - -;
#X floatatom -31 666 5 0 0 0 - - -;
#X floatatom 11 666 5 0 0 0 - - -;
#X floatatom 48 668 5 0 0 0 - - -;
#X floatatom 87 668 5 0 0 0 - - -;
#X floatatom 129 668 5 0 0 0 - - -;
#X floatatom 169 669 5 0 0 0 - - -;
#X floatatom 208 669 5 0 0 0 - - -;
#X floatatom 250 669 5 0 0 0 - - -;
#X obj 165 772 vsl 15 128 0 127 0 0 empty empty empty 0 -9 0 10 -262144
-1 -1 0 1;
#X obj 202 771 vsl 15 128 0 127 0 0 empty empty empty 0 -9 0 10 -262144
-1 -1 0 1;
#X obj 213 736 * 800;
#X obj 241 770 vsl 15 128 0 127 0 0 empty empty empty 0 -9 0 10 -262144
-1 -1 10491 1;
#X obj 251 735 * 400;
#X obj 549 638 delta;
#X obj -28 882 change;
#X obj -23 850 >= 0.2;
#X obj 120 569 route /4/raw;
#X obj 550 698 vsl 15 128 0 127 0 0 empty empty empty 0 -9 0 10 -262144
-1 -1 5018 1;
#X obj 612 792 ctlout 4 1;
#X obj 550 672 * 600;
#X obj 509 687 + 50;
#X obj 324 547 onebang;
#X obj 359 510 del 100;
#X obj 344 577 bng 15 250 50 0 empty empty empty 17 7 0 10 -262144
-1 -1;
#X obj 387 535 bng 15 250 50 0 empty empty empty 17 7 0 10 -262144
-1 -1;
#X obj 317 792 tgl 15 0 empty empty empty 17 7 0 10 -262144 -1 -1 1
1;
#X obj 347 755 < 0;
#X obj 389 779 tgl 15 0 empty empty empty 17 7 0 10 -262144 -1 -1 1
1;
#X obj 284 761 >= 20;
#X obj 299 819 sel 1;
#X obj 313 858 bng 15 250 50 0 empty empty empty 17 7 0 10 -262144
-1 -1;
#X obj 367 820 sel 1;
#X obj 378 857 bng 15 250 50 0 empty empty empty 17 7 0 10 -262144
-1 -1;
#X obj 381 799 change;
#X obj 454 776 tgl 15 0 empty empty empty 17 7 0 10 -262144 -1 -1 1
1;
#X obj 432 817 sel 1;
#X obj 443 854 bng 15 250 50 0 empty empty empty 17 7 0 10 -262144
-1 -1;
#X obj 446 796 change;
#X obj 435 755 < 0;
#X obj 271 792 change;
#X obj 175 736 * 3000;
#X obj 471 879 ctlout 5 1;
#X msg 514 851 45;
#X msg 391 595 57;
#X obj 617 875 ctlout 6 1;
#X msg 546 851 48;
#X obj 450 590 del 40;
#X obj 644 336 < 0;
#X obj 644 359 change;
#X obj 649 392 sel 1;
#X obj 650 425 bng 15 250 50 0 empty empty empty 17 7 0 10 -262144
-1 -1;
#X obj 650 447 onebang;
#X obj 685 410 del 100;
#X obj 670 477 bng 15 250 50 0 empty empty empty 17 7 0 10 -262144
-1 -1;
#X obj 713 435 bng 15 250 50 0 empty empty empty 17 7 0 10 -262144
-1 -1;
#X msg 447 624 61;
#X msg 492 619 55;
#X connect 0 0 2 0;
#X connect 2 0 3 0;
#X connect 3 0 4 0;
#X connect 3 1 5 0;
#X connect 3 2 6 0;
#X connect 3 3 7 0;
#X connect 3 4 8 0;
#X connect 3 5 9 0;
#X connect 3 6 10 0;
#X connect 3 7 11 0;
#X connect 3 8 12 0;
#X connect 6 0 22 0;
#X connect 10 0 14 0;
#X connect 11 0 16 0;
#X connect 12 0 18 0;
#X connect 13 0 19 0;
#X connect 14 0 13 0;
#X connect 15 0 20 0;
#X connect 16 0 15 0;
#X connect 17 0 21 0;
#X connect 18 0 17 0;
#X connect 18 0 77 0;
#X connect 22 0 26 0;
#X connect 23 0 24 0;
#X connect 24 0 25 0;
#X connect 25 0 51 0;
#X connect 26 0 23 0;
#X connect 27 0 46 0;
#X connect 28 0 29 0;
#X connect 28 1 30 0;
#X connect 28 2 31 0;
#X connect 28 3 32 0;
#X connect 28 4 33 0;
#X connect 28 5 34 0;
#X connect 28 6 35 0;
#X connect 28 7 36 0;
#X connect 28 8 37 0;
#X connect 35 0 70 0;
#X connect 36 0 40 0;
#X connect 37 0 42 0;
#X connect 40 0 39 0;
#X connect 40 0 56 0;
#X connect 42 0 41 0;
#X connect 42 0 58 0;
#X connect 43 0 49 0;
#X connect 45 0 44 0;
#X connect 46 0 28 0;
#X connect 47 0 48 0;
#X connect 49 0 50 0;
#X connect 50 0 47 0;
#X connect 51 0 52 0;
#X connect 52 0 51 1;
#X connect 53 0 73 0;
#X connect 53 0 76 0;
#X connect 54 0 51 1;
#X connect 55 0 69 0;
#X connect 56 0 57 0;
#X connect 57 0 63 0;
#X connect 58 0 55 0;
#X connect 59 0 60 0;
#X connect 60 0 75 0;
#X connect 61 0 62 0;
#X connect 62 0 72 0;
#X connect 63 0 61 0;
#X connect 64 0 67 0;
#X connect 65 0 66 0;
#X connect 67 0 65 0;
#X connect 68 0 64 0;
#X connect 69 0 59 0;
#X connect 70 0 38 0;
#X connect 70 0 68 0;
#X connect 72 0 71 0;
#X connect 73 0 74 0;
#X connect 75 0 71 0;
#X connect 76 0 85 0;
#X connect 77 0 78 0;
#X connect 78 0 79 0;
#X connect 79 0 80 0;
#X connect 80 0 81 0;
#X connect 81 0 82 0;
#X connect 81 0 83 0;
#X connect 82 0 81 1;
#X connect 84 0 81 1;
#X connect 85 0 74 0;
#X connect 86 0 74 0;
