#N canvas 0 23 1275 565 10;
#X obj 75 124 bytes2any 128 0;
#X floatatom 78 188 5 0 0 0 - - -;
#X obj 78 146 f;
#X obj 76 102 udpreceive 1255;
#X obj 78 166 - 249;
#X obj 178 124 bytes2any 128 0;
#X floatatom 181 188 5 0 0 0 - - -;
#X obj 181 146 f;
#X obj 181 166 - 249;
#X obj 179 102 udpreceive 1256;
#X obj 279 125 bytes2any 128 0;
#X floatatom 282 189 5 0 0 0 - - -;
#X obj 282 147 f;
#X obj 282 167 - 249;
#X obj 280 103 udpreceive 1257;
#X obj 378 125 bytes2any 128 0;
#X floatatom 381 189 5 0 0 0 - - -;
#X obj 381 147 f;
#X obj 381 167 - 249;
#X obj 481 125 bytes2any 128 0;
#X floatatom 484 189 5 0 0 0 - - -;
#X obj 484 147 f;
#X obj 484 167 - 249;
#X obj 582 126 bytes2any 128 0;
#X floatatom 585 190 5 0 0 0 - - -;
#X obj 585 148 f;
#X obj 585 168 - 249;
#X obj 379 103 udpreceive 1258;
#X obj 483 103 udpreceive 1259;
#X obj 584 104 udpreceive 1260;
#X obj 685 125 bytes2any 128 0;
#X floatatom 688 189 5 0 0 0 - - -;
#X obj 688 147 f;
#X obj 688 167 - 249;
#X obj 788 125 bytes2any 128 0;
#X floatatom 791 189 5 0 0 0 - - -;
#X obj 791 147 f;
#X obj 791 167 - 249;
#X obj 889 126 bytes2any 128 0;
#X floatatom 892 190 5 0 0 0 - - -;
#X obj 892 148 f;
#X obj 892 168 - 249;
#X obj 988 126 bytes2any 128 0;
#X floatatom 991 190 5 0 0 0 - - -;
#X obj 991 148 f;
#X obj 991 168 - 249;
#X obj 1091 126 bytes2any 128 0;
#X floatatom 1094 190 5 0 0 0 - - -;
#X obj 1094 148 f;
#X obj 1094 168 - 249;
#X obj 686 103 udpreceive 1261;
#X obj 789 103 udpreceive 1262;
#X obj 890 104 udpreceive 1263;
#X obj 989 104 udpreceive 1264;
#X obj 1093 104 udpreceive 1265;
#X obj 81 251 vsl 15 128 0 127 0 0 empty empty empty 0 -9 0 10 -262144
-1 -1 0 1;
#X obj 181 246 vsl 15 128 0 127 0 0 empty empty empty 0 -9 0 10 -262144
-1 -1 5500 1;
#X obj 281 252 vsl 15 128 0 127 0 0 empty empty empty 0 -9 0 10 -262144
-1 -1 7750 1;
#X obj 381 247 vsl 15 128 0 127 0 0 empty empty empty 0 -9 0 10 -262144
-1 -1 5187 1;
#X obj 486 250 vsl 15 128 0 127 0 0 empty empty empty 0 -9 0 10 -262144
-1 -1 1500 1;
#X obj 586 245 vsl 15 128 0 127 0 0 empty empty empty 0 -9 0 10 -262144
-1 -1 12500 1;
#X obj 685 248 vsl 15 128 0 127 0 0 empty empty empty 0 -9 0 10 -262144
-1 -1 3000 1;
#X obj 785 243 vsl 15 128 0 127 0 0 empty empty empty 0 -9 0 10 -262144
-1 -1 11000 1;
#X obj 885 249 vsl 15 128 0 127 0 0 empty empty empty 0 -9 0 10 -262144
-1 -1 12700 1;
#X obj 985 244 vsl 15 128 0 127 0 0 empty empty empty 0 -9 0 10 -262144
-1 -1 1000 1;
#X obj 1090 247 vsl 15 128 0 127 0 0 empty empty empty 0 -9 0 10 -262144
-1 -1 10500 1;
#X text 1134 190 seconds;
#X obj 884 224 * 40;
#X obj 985 220 * 40;
#X obj 1089 222 * 40;
#X obj 785 219 * 40;
#X obj 684 223 * 40;
#X obj 586 221 * 40;
#X obj 485 225 * 40;
#X obj 381 223 * 40;
#X obj 280 227 * 40;
#X obj 181 222 * 40;
#X obj 80 226 * 40;
#X text 77 9 Example of pull request from python to PD This example
pulls each token/ footstep in seconds. A Temporal mapping of a ghosting
microcycle. www.github.com/kilshaw/squash_foot_patterns_tracking_models
simon Kilshaw 2021;
#X connect 0 0 2 0;
#X connect 1 0 77 0;
#X connect 2 0 4 0;
#X connect 3 0 0 0;
#X connect 4 0 1 0;
#X connect 5 0 7 0;
#X connect 6 0 76 0;
#X connect 7 0 8 0;
#X connect 8 0 6 0;
#X connect 9 0 5 0;
#X connect 10 0 12 0;
#X connect 11 0 75 0;
#X connect 12 0 13 0;
#X connect 13 0 11 0;
#X connect 14 0 10 0;
#X connect 15 0 17 0;
#X connect 16 0 74 0;
#X connect 17 0 18 0;
#X connect 18 0 16 0;
#X connect 19 0 21 0;
#X connect 20 0 73 0;
#X connect 21 0 22 0;
#X connect 22 0 20 0;
#X connect 23 0 25 0;
#X connect 24 0 72 0;
#X connect 25 0 26 0;
#X connect 26 0 24 0;
#X connect 27 0 15 0;
#X connect 28 0 19 0;
#X connect 29 0 23 0;
#X connect 30 0 32 0;
#X connect 31 0 71 0;
#X connect 32 0 33 0;
#X connect 33 0 31 0;
#X connect 34 0 36 0;
#X connect 35 0 70 0;
#X connect 36 0 37 0;
#X connect 37 0 35 0;
#X connect 38 0 40 0;
#X connect 39 0 67 0;
#X connect 40 0 41 0;
#X connect 41 0 39 0;
#X connect 42 0 44 0;
#X connect 43 0 68 0;
#X connect 44 0 45 0;
#X connect 45 0 43 0;
#X connect 46 0 48 0;
#X connect 47 0 69 0;
#X connect 48 0 49 0;
#X connect 49 0 47 0;
#X connect 50 0 30 0;
#X connect 51 0 34 0;
#X connect 52 0 38 0;
#X connect 53 0 42 0;
#X connect 54 0 46 0;
#X connect 67 0 63 0;
#X connect 68 0 64 0;
#X connect 69 0 65 0;
#X connect 70 0 62 0;
#X connect 71 0 61 0;
#X connect 72 0 60 0;
#X connect 73 0 59 0;
#X connect 74 0 58 0;
#X connect 75 0 57 0;
#X connect 76 0 56 0;
#X connect 77 0 55 0;
